<mxfile host="app.diagrams.net" agent="Mozilla/5.0 (Windows NT 10.0; Win64; x64) AppleWebKit/537.36 (KHTML, like Gecko) Chrome/136.0.0.0 Safari/537.36 Edg/136.0.0.0" version="27.0.9">
  <diagram name="PÃ¡gina-1" id="8H2arUNHft7z30pN4TFg">
    <mxGraphModel dx="2100" dy="618" grid="1" gridSize="10" guides="1" tooltips="1" connect="1" arrows="1" fold="1" page="1" pageScale="1" pageWidth="827" pageHeight="1169" math="0" shadow="0">
      <root>
        <mxCell id="0" />
        <mxCell id="1" parent="0" />
        <mxCell id="NZ_cdh0wZK9CuaUFpkyA-6" value="Usuario" style="swimlane;childLayout=stackLayout;horizontal=1;startSize=50;horizontalStack=0;rounded=1;fontSize=14;fontStyle=0;strokeWidth=2;resizeParent=0;resizeLast=1;shadow=0;dashed=0;align=center;arcSize=4;whiteSpace=wrap;html=1;" vertex="1" parent="1">
          <mxGeometry x="170" y="140" width="160" height="120" as="geometry">
            <mxRectangle x="170" y="140" width="90" height="50" as="alternateBounds" />
          </mxGeometry>
        </mxCell>
        <mxCell id="NZ_cdh0wZK9CuaUFpkyA-7" value="+String id&lt;div&gt;+Estadisticas stats&lt;/div&gt;" style="align=left;strokeColor=none;fillColor=none;spacingLeft=4;spacingRight=4;fontSize=12;verticalAlign=top;resizable=0;rotatable=0;part=1;html=1;whiteSpace=wrap;" vertex="1" parent="NZ_cdh0wZK9CuaUFpkyA-6">
          <mxGeometry y="50" width="160" height="70" as="geometry" />
        </mxCell>
        <mxCell id="NZ_cdh0wZK9CuaUFpkyA-8" value="+Registrar partida () void" style="whiteSpace=wrap;html=1;align=center;" vertex="1" parent="1">
          <mxGeometry x="170" y="260" width="160" height="40" as="geometry" />
        </mxCell>
        <mxCell id="NZ_cdh0wZK9CuaUFpkyA-9" value="Estadisticas" style="swimlane;childLayout=stackLayout;horizontal=1;startSize=50;horizontalStack=0;rounded=1;fontSize=14;fontStyle=0;strokeWidth=2;resizeParent=0;resizeLast=1;shadow=0;dashed=0;align=center;arcSize=4;whiteSpace=wrap;html=1;" vertex="1" parent="1">
          <mxGeometry x="431" y="350" width="160" height="120" as="geometry" />
        </mxCell>
        <mxCell id="NZ_cdh0wZK9CuaUFpkyA-10" value="+int partidasJugadas&lt;div&gt;+int muertesTotales&lt;/div&gt;&lt;div&gt;+List finalesAlcansados&lt;/div&gt;" style="align=left;strokeColor=none;fillColor=none;spacingLeft=4;spacingRight=4;fontSize=12;verticalAlign=top;resizable=0;rotatable=0;part=1;html=1;whiteSpace=wrap;" vertex="1" parent="NZ_cdh0wZK9CuaUFpkyA-9">
          <mxGeometry y="50" width="160" height="70" as="geometry" />
        </mxCell>
        <mxCell id="NZ_cdh0wZK9CuaUFpkyA-11" value="+actualizar () void" style="whiteSpace=wrap;html=1;align=center;" vertex="1" parent="1">
          <mxGeometry x="430" y="470" width="160" height="40" as="geometry" />
        </mxCell>
        <mxCell id="NZ_cdh0wZK9CuaUFpkyA-13" value="" style="endArrow=classic;html=1;rounded=0;exitX=1;exitY=1;exitDx=0;exitDy=0;entryX=0.5;entryY=0;entryDx=0;entryDy=0;" edge="1" parent="1" source="NZ_cdh0wZK9CuaUFpkyA-15" target="NZ_cdh0wZK9CuaUFpkyA-9">
          <mxGeometry width="50" height="50" relative="1" as="geometry">
            <mxPoint x="380" y="330" as="sourcePoint" />
            <mxPoint x="430" y="280" as="targetPoint" />
            <Array as="points" />
          </mxGeometry>
        </mxCell>
        <mxCell id="NZ_cdh0wZK9CuaUFpkyA-16" value="" style="endArrow=classic;html=1;rounded=0;exitX=1;exitY=1;exitDx=0;exitDy=0;entryX=0.5;entryY=0;entryDx=0;entryDy=0;" edge="1" parent="1" source="NZ_cdh0wZK9CuaUFpkyA-7" target="NZ_cdh0wZK9CuaUFpkyA-15">
          <mxGeometry width="50" height="50" relative="1" as="geometry">
            <mxPoint x="330" y="260" as="sourcePoint" />
            <mxPoint x="460" y="350" as="targetPoint" />
            <Array as="points" />
          </mxGeometry>
        </mxCell>
        <mxCell id="NZ_cdh0wZK9CuaUFpkyA-15" value="Registra" style="text;html=1;align=center;verticalAlign=middle;whiteSpace=wrap;rounded=0;" vertex="1" parent="1">
          <mxGeometry x="370" y="290" width="60" height="30" as="geometry" />
        </mxCell>
        <mxCell id="NZ_cdh0wZK9CuaUFpkyA-17" value="" style="endArrow=classic;html=1;rounded=0;exitX=0;exitY=1;exitDx=0;exitDy=0;entryX=0.5;entryY=0;entryDx=0;entryDy=0;" edge="1" parent="1" source="NZ_cdh0wZK9CuaUFpkyA-18" target="NZ_cdh0wZK9CuaUFpkyA-20">
          <mxGeometry width="50" height="50" relative="1" as="geometry">
            <mxPoint x="130" y="260" as="sourcePoint" />
            <mxPoint x="100" y="330" as="targetPoint" />
            <Array as="points" />
          </mxGeometry>
        </mxCell>
        <mxCell id="NZ_cdh0wZK9CuaUFpkyA-20" value="Partida" style="swimlane;childLayout=stackLayout;horizontal=1;startSize=50;horizontalStack=0;rounded=1;fontSize=14;fontStyle=0;strokeWidth=2;resizeParent=0;resizeLast=1;shadow=0;dashed=0;align=center;arcSize=4;whiteSpace=wrap;html=1;" vertex="1" parent="1">
          <mxGeometry x="-50" y="350" width="160" height="160" as="geometry" />
        </mxCell>
        <mxCell id="NZ_cdh0wZK9CuaUFpkyA-21" value="+String id&lt;div&gt;+Protagonista protagonista&lt;/div&gt;&lt;div&gt;+Lugar realidaActual&lt;/div&gt;&lt;div&gt;+int salud&lt;/div&gt;&lt;div&gt;+bool estaVivo&lt;/div&gt;&lt;div&gt;&lt;br&gt;&lt;/div&gt;&lt;div&gt;&lt;br&gt;&lt;/div&gt;" style="align=left;strokeColor=none;fillColor=none;spacingLeft=4;spacingRight=4;fontSize=12;verticalAlign=top;resizable=0;rotatable=0;part=1;html=1;whiteSpace=wrap;" vertex="1" parent="NZ_cdh0wZK9CuaUFpkyA-20">
          <mxGeometry y="50" width="160" height="110" as="geometry" />
        </mxCell>
        <mxCell id="NZ_cdh0wZK9CuaUFpkyA-22" value="+Iniciar () void&lt;div&gt;+Finalizar()void&lt;/div&gt;&lt;div&gt;+GenerarObjetos&lt;span style=&quot;background-color: transparent; color: light-dark(rgb(0, 0, 0), rgb(255, 255, 255));&quot;&gt;Areadorios():void&lt;/span&gt;&lt;/div&gt;" style="whiteSpace=wrap;html=1;align=center;" vertex="1" parent="1">
          <mxGeometry x="-62" y="510" width="200" height="60" as="geometry" />
        </mxCell>
        <mxCell id="NZ_cdh0wZK9CuaUFpkyA-23" value="" style="endArrow=classic;html=1;rounded=0;exitX=0;exitY=1;exitDx=0;exitDy=0;entryX=0.5;entryY=0;entryDx=0;entryDy=0;" edge="1" parent="1" source="NZ_cdh0wZK9CuaUFpkyA-6" target="NZ_cdh0wZK9CuaUFpkyA-18">
          <mxGeometry width="50" height="50" relative="1" as="geometry">
            <mxPoint x="170" y="260" as="sourcePoint" />
            <mxPoint x="100" y="350" as="targetPoint" />
            <Array as="points" />
          </mxGeometry>
        </mxCell>
        <mxCell id="NZ_cdh0wZK9CuaUFpkyA-18" value="Juega" style="text;html=1;align=center;verticalAlign=middle;whiteSpace=wrap;rounded=0;" vertex="1" parent="1">
          <mxGeometry x="80" y="290" width="60" height="30" as="geometry" />
        </mxCell>
        <mxCell id="NZ_cdh0wZK9CuaUFpkyA-25" value="" style="endArrow=classic;html=1;rounded=0;exitX=0.5;exitY=1;exitDx=0;exitDy=0;entryX=0.5;entryY=0;entryDx=0;entryDy=0;" edge="1" parent="1" source="NZ_cdh0wZK9CuaUFpkyA-26" target="NZ_cdh0wZK9CuaUFpkyA-28">
          <mxGeometry width="50" height="50" relative="1" as="geometry">
            <mxPoint x="70" y="580" as="sourcePoint" />
            <mxPoint x="-150" y="610" as="targetPoint" />
            <Array as="points" />
          </mxGeometry>
        </mxCell>
        <mxCell id="NZ_cdh0wZK9CuaUFpkyA-27" value="" style="endArrow=classic;html=1;rounded=0;exitX=0;exitY=0;exitDx=0;exitDy=0;" edge="1" parent="1" source="NZ_cdh0wZK9CuaUFpkyA-22" target="NZ_cdh0wZK9CuaUFpkyA-26">
          <mxGeometry width="50" height="50" relative="1" as="geometry">
            <mxPoint x="-50" y="490" as="sourcePoint" />
            <mxPoint x="-150" y="610" as="targetPoint" />
            <Array as="points" />
          </mxGeometry>
        </mxCell>
        <mxCell id="NZ_cdh0wZK9CuaUFpkyA-26" value="Usa" style="text;html=1;align=center;verticalAlign=middle;whiteSpace=wrap;rounded=0;" vertex="1" parent="1">
          <mxGeometry x="-130" y="540" width="60" height="30" as="geometry" />
        </mxCell>
        <mxCell id="NZ_cdh0wZK9CuaUFpkyA-28" value="Protagonista" style="swimlane;childLayout=stackLayout;horizontal=1;startSize=50;horizontalStack=0;rounded=1;fontSize=14;fontStyle=0;strokeWidth=2;resizeParent=0;resizeLast=1;shadow=0;dashed=0;align=center;arcSize=4;whiteSpace=wrap;html=1;" vertex="1" parent="1">
          <mxGeometry x="-222" y="620" width="160" height="150" as="geometry" />
        </mxCell>
        <mxCell id="NZ_cdh0wZK9CuaUFpkyA-29" value="&lt;div&gt;+String nombre&lt;/div&gt;&lt;div&gt;+Sting habilidad&lt;/div&gt;&lt;div&gt;+int velocidad&lt;/div&gt;&lt;div&gt;+int vida&lt;/div&gt;&lt;div&gt;+int ataque&lt;/div&gt;&lt;div&gt;+List mochila&lt;/div&gt;" style="align=left;strokeColor=none;fillColor=none;spacingLeft=4;spacingRight=4;fontSize=12;verticalAlign=top;resizable=0;rotatable=0;part=1;html=1;whiteSpace=wrap;" vertex="1" parent="NZ_cdh0wZK9CuaUFpkyA-28">
          <mxGeometry y="50" width="160" height="100" as="geometry" />
        </mxCell>
        <mxCell id="NZ_cdh0wZK9CuaUFpkyA-30" value="+morir()void&lt;div&gt;+recogerObjetos()void&lt;/div&gt;&lt;div&gt;-usarObjetos()void&lt;/div&gt;" style="whiteSpace=wrap;html=1;align=center;" vertex="1" parent="1">
          <mxGeometry x="-222" y="770" width="160" height="50" as="geometry" />
        </mxCell>
        <mxCell id="NZ_cdh0wZK9CuaUFpkyA-32" value="" style="endArrow=classic;html=1;rounded=0;exitX=0.5;exitY=1;exitDx=0;exitDy=0;entryX=0.5;entryY=0;entryDx=0;entryDy=0;" edge="1" parent="1" source="NZ_cdh0wZK9CuaUFpkyA-33" target="NZ_cdh0wZK9CuaUFpkyA-34">
          <mxGeometry width="50" height="50" relative="1" as="geometry">
            <mxPoint x="372" y="580" as="sourcePoint" />
            <mxPoint x="152" y="610" as="targetPoint" />
            <Array as="points" />
          </mxGeometry>
        </mxCell>
        <mxCell id="NZ_cdh0wZK9CuaUFpkyA-33" value="Usa" style="text;html=1;align=center;verticalAlign=middle;whiteSpace=wrap;rounded=0;" vertex="1" parent="1">
          <mxGeometry x="160" y="540" width="60" height="30" as="geometry" />
        </mxCell>
        <mxCell id="NZ_cdh0wZK9CuaUFpkyA-47" style="edgeStyle=orthogonalEdgeStyle;rounded=0;orthogonalLoop=1;jettySize=auto;html=1;exitX=0;exitY=0.5;exitDx=0;exitDy=0;entryX=0.5;entryY=0;entryDx=0;entryDy=0;" edge="1" parent="1" source="NZ_cdh0wZK9CuaUFpkyA-34" target="NZ_cdh0wZK9CuaUFpkyA-44">
          <mxGeometry relative="1" as="geometry" />
        </mxCell>
        <mxCell id="NZ_cdh0wZK9CuaUFpkyA-34" value="Lugar" style="swimlane;childLayout=stackLayout;horizontal=1;startSize=50;horizontalStack=0;rounded=1;fontSize=14;fontStyle=0;strokeWidth=2;resizeParent=0;resizeLast=1;shadow=0;dashed=0;align=center;arcSize=4;whiteSpace=wrap;html=1;" vertex="1" parent="1">
          <mxGeometry x="160" y="620" width="160" height="150" as="geometry" />
        </mxCell>
        <mxCell id="NZ_cdh0wZK9CuaUFpkyA-35" value="+String Nombre&lt;div&gt;+List efectos&lt;/div&gt;&lt;div&gt;+List ObjetosPosibles&lt;/div&gt;&lt;div&gt;+String Clima&lt;/div&gt;&lt;div&gt;+int Hora del Dia&lt;/div&gt;&lt;div&gt;&lt;br&gt;&lt;/div&gt;" style="align=left;strokeColor=none;fillColor=none;spacingLeft=4;spacingRight=4;fontSize=12;verticalAlign=top;resizable=0;rotatable=0;part=1;html=1;whiteSpace=wrap;" vertex="1" parent="NZ_cdh0wZK9CuaUFpkyA-34">
          <mxGeometry y="50" width="160" height="100" as="geometry" />
        </mxCell>
        <mxCell id="NZ_cdh0wZK9CuaUFpkyA-36" value="&lt;div&gt;+generarObjetos()Objetos&lt;/div&gt;" style="whiteSpace=wrap;html=1;align=center;" vertex="1" parent="1">
          <mxGeometry x="160" y="770" width="160" height="50" as="geometry" />
        </mxCell>
        <mxCell id="NZ_cdh0wZK9CuaUFpkyA-37" value="" style="endArrow=classic;html=1;rounded=0;exitX=1;exitY=0;exitDx=0;exitDy=0;entryX=0.373;entryY=0.013;entryDx=0;entryDy=0;entryPerimeter=0;" edge="1" parent="1" source="NZ_cdh0wZK9CuaUFpkyA-22" target="NZ_cdh0wZK9CuaUFpkyA-33">
          <mxGeometry width="50" height="50" relative="1" as="geometry">
            <mxPoint x="150" y="490" as="sourcePoint" />
            <mxPoint x="188" y="540" as="targetPoint" />
            <Array as="points" />
          </mxGeometry>
        </mxCell>
        <mxCell id="NZ_cdh0wZK9CuaUFpkyA-38" value="Efecto" style="swimlane;childLayout=stackLayout;horizontal=1;startSize=50;horizontalStack=0;rounded=1;fontSize=14;fontStyle=0;strokeWidth=2;resizeParent=0;resizeLast=1;shadow=0;dashed=0;align=center;arcSize=4;whiteSpace=wrap;html=1;" vertex="1" parent="1">
          <mxGeometry x="414" y="670" width="160" height="90" as="geometry" />
        </mxCell>
        <mxCell id="NZ_cdh0wZK9CuaUFpkyA-39" value="+String nombre&lt;div&gt;+int duraciÃ³n&lt;/div&gt;" style="align=left;strokeColor=none;fillColor=none;spacingLeft=4;spacingRight=4;fontSize=12;verticalAlign=top;resizable=0;rotatable=0;part=1;html=1;whiteSpace=wrap;" vertex="1" parent="NZ_cdh0wZK9CuaUFpkyA-38">
          <mxGeometry y="50" width="160" height="40" as="geometry" />
        </mxCell>
        <mxCell id="NZ_cdh0wZK9CuaUFpkyA-40" style="edgeStyle=orthogonalEdgeStyle;rounded=0;orthogonalLoop=1;jettySize=auto;html=1;exitX=1;exitY=0.25;exitDx=0;exitDy=0;entryX=0;entryY=0.25;entryDx=0;entryDy=0;" edge="1" parent="1" source="NZ_cdh0wZK9CuaUFpkyA-35" target="NZ_cdh0wZK9CuaUFpkyA-38">
          <mxGeometry relative="1" as="geometry" />
        </mxCell>
        <mxCell id="NZ_cdh0wZK9CuaUFpkyA-41" value="+aplicar efectos()void" style="whiteSpace=wrap;html=1;align=center;" vertex="1" parent="1">
          <mxGeometry x="414" y="760" width="156" height="50" as="geometry" />
        </mxCell>
        <mxCell id="NZ_cdh0wZK9CuaUFpkyA-44" value="Objeto" style="swimlane;childLayout=stackLayout;horizontal=1;startSize=50;horizontalStack=0;rounded=1;fontSize=14;fontStyle=0;strokeWidth=2;resizeParent=0;resizeLast=1;shadow=0;dashed=0;align=center;arcSize=4;whiteSpace=wrap;html=1;" vertex="1" parent="1">
          <mxGeometry x="-32" y="870" width="160" height="110" as="geometry" />
        </mxCell>
        <mxCell id="NZ_cdh0wZK9CuaUFpkyA-45" value="+String nombre&lt;div&gt;+int daÃ±o&lt;/div&gt;&lt;div&gt;+int duraciÃ³n&lt;/div&gt;&lt;div&gt;&lt;br&gt;&lt;/div&gt;" style="align=left;strokeColor=none;fillColor=none;spacingLeft=4;spacingRight=4;fontSize=12;verticalAlign=top;resizable=0;rotatable=0;part=1;html=1;whiteSpace=wrap;" vertex="1" parent="NZ_cdh0wZK9CuaUFpkyA-44">
          <mxGeometry y="50" width="160" height="60" as="geometry" />
        </mxCell>
        <mxCell id="NZ_cdh0wZK9CuaUFpkyA-46" value="-usar()void&lt;div&gt;+recoger()void&lt;/div&gt;&lt;div&gt;-delete()void&lt;/div&gt;" style="whiteSpace=wrap;html=1;align=center;" vertex="1" parent="1">
          <mxGeometry x="-30" y="980" width="156" height="50" as="geometry" />
        </mxCell>
        <mxCell id="NZ_cdh0wZK9CuaUFpkyA-48" style="edgeStyle=orthogonalEdgeStyle;rounded=0;orthogonalLoop=1;jettySize=auto;html=1;exitX=1;exitY=0.25;exitDx=0;exitDy=0;entryX=0.5;entryY=0;entryDx=0;entryDy=0;" edge="1" parent="1" source="NZ_cdh0wZK9CuaUFpkyA-29" target="NZ_cdh0wZK9CuaUFpkyA-44">
          <mxGeometry relative="1" as="geometry" />
        </mxCell>
      </root>
    </mxGraphModel>
  </diagram>
</mxfile>
